<?xml version="1.0" standalone="no"?>
<!DOCTYPE svg PUBLIC "-//W3C//DTD SVG 20010904//EN"
 "http://www.w3.org/TR/2001/REC-SVG-20010904/DTD/svg10.dtd">
<svg version="1.0" xmlns="http://www.w3.org/2000/svg"
 width="926.000000pt" height="926.000000pt" viewBox="0 0 926.000000 926.000000"
 preserveAspectRatio="xMidYMid meet">
<metadata>
Created by potrace 1.14, written by Peter Selinger 2001-2017
</metadata>
<g transform="translate(0.000000,926.000000) scale(0.100000,-0.100000)"
fill="#000000" stroke="none">
<path d="M0 8386 l0 -874 36 -7 c43 -8 68 -29 60 -50 -5 -15 -27 -19 -73 -15
l-23 1 0 -580 0 -581 59 0 c33 0 62 4 66 9 3 5 54 9 113 9 59 0 137 3 175 6
129 13 54 -22 -86 -39 -26 -3 -58 -10 -71 -15 -13 -4 -59 -9 -102 -9 -43 -1
-95 -5 -114 -9 l-35 -8 -3 -291 -2 -291 22 -5 c35 -9 157 -10 219 -2 48 6 58
4 67 -10 10 -18 0 -81 -15 -96 -4 -4 -36 -9 -71 -11 -34 -1 -62 -6 -62 -11 0
-5 -36 -7 -80 -5 l-80 3 0 -1297 c0 -1288 0 -1297 20 -1303 27 -9 60 3 60 21
0 8 5 14 10 14 6 0 10 5 10 10 0 6 15 26 33 45 29 30 36 33 77 28 35 -4 49 -1
60 11 12 15 11 18 -8 23 -29 7 -28 31 1 36 12 2 -11 4 -52 5 -41 0 -79 6 -85
12 -5 5 -17 10 -26 10 -39 0 -68 75 -37 97 12 8 121 58 162 73 59 22 118 47
182 77 39 18 87 33 107 33 19 0 38 5 41 10 4 6 15 8 26 5 11 -4 38 -3 61 0 35
6 39 9 23 18 -14 7 -20 7 -23 -1 -2 -7 -7 -12 -12 -12 -4 0 -3 11 3 25 7 14
19 25 27 25 8 0 25 3 38 6 16 5 22 2 22 -10 0 -9 5 -16 10 -16 6 0 10 7 10 15
0 9 6 15 13 14 19 -3 71 12 82 25 17 20 93 37 130 30 31 -6 35 -4 35 16 0 13
-8 24 -20 27 -14 4 -20 14 -20 34 0 23 -5 30 -27 35 -16 3 -50 12 -76 19 -26
7 -58 10 -72 7 -23 -7 -23 -7 11 -32 46 -35 43 -97 -6 -108 -8 -2 -22 -10 -32
-18 -12 -11 -18 -12 -23 -4 -6 9 -10 9 -15 -1 -7 -10 -12 -10 -26 2 -13 11
-18 11 -21 2 -5 -15 -33 -17 -33 -3 0 6 -9 10 -20 10 -11 0 -59 13 -107 29
-232 76 -267 84 -340 83 -41 -1 -73 3 -73 8 0 12 65 40 93 40 11 0 39 9 61 19
42 20 187 61 216 61 9 0 34 9 56 19 74 36 138 41 325 26 203 -17 231 -21 282
-47 29 -14 42 -16 57 -8 11 6 35 8 54 5 20 -4 36 -2 40 4 4 6 17 11 30 11 12
0 26 3 30 7 4 4 19 7 34 8 20 0 28 6 30 22 2 12 10 27 18 33 8 7 14 23 14 36
0 29 16 31 38 3 19 -22 52 -18 52 7 0 8 5 14 10 14 6 0 10 11 10 25 0 26 11
29 86 25 18 -1 35 4 39 9 3 6 11 8 17 5 5 -4 21 -1 34 7 23 12 23 13 7 31 -16
17 -16 20 1 36 11 12 19 14 24 6 4 -6 24 -17 45 -25 20 -7 37 -18 37 -24 0 -5
5 -2 11 8 12 21 4 55 -14 54 -34 -1 -47 4 -47 19 0 12 7 15 25 12 22 -5 25 -2
25 25 0 22 3 27 13 19 8 -7 18 -6 31 4 11 7 29 11 42 8 19 -5 22 -3 17 15 -4
17 0 22 27 27 23 5 30 11 27 23 -3 14 3 17 39 16 32 -2 44 2 44 12 0 11 11 14
43 12 41 -3 42 -2 39 25 -3 25 0 28 17 23 12 -3 21 -1 21 4 0 10 42 29 49 23
2 -2 -1 -9 -7 -16 -20 -25 -45 -132 -43 -187 1 -31 -3 -94 -9 -141 -5 -47 -17
-148 -25 -225 -9 -77 -22 -164 -29 -193 -28 -103 -29 -189 -5 -277 12 -44 25
-105 30 -135 4 -30 15 -95 24 -145 33 -182 53 -245 77 -245 6 0 26 -11 45 -26
25 -19 33 -33 33 -57 1 -42 30 -104 69 -144 17 -18 31 -42 31 -53 0 -25 29
-88 56 -122 28 -35 28 -34 59 142 14 74 34 173 46 220 12 47 26 101 30 120 16
68 27 74 136 81 232 15 383 29 424 38 60 14 60 14 50 -11 -5 -13 -5 -43 -2
-68 13 -90 -67 -484 -143 -705 -49 -145 -47 -141 -61 -122 -6 8 -22 17 -35 19
-36 5 -38 40 -5 66 20 16 31 40 47 104 10 46 26 93 33 104 12 18 11 25 -2 44
-11 15 -16 41 -15 69 l2 46 -37 -80 -37 -80 -66 0 -65 0 -9 -43 c-5 -23 -6
-45 -3 -48 11 -11 57 6 57 21 0 11 13 15 50 15 46 0 50 -2 50 -24 0 -13 -7
-29 -16 -37 -23 -19 -40 -59 -43 -99 -1 -19 -8 -38 -16 -43 -8 -4 -15 -14 -15
-22 0 -21 -50 -64 -85 -73 -26 -7 -30 -13 -31 -43 -2 -50 -12 -83 -29 -95 -8
-6 -15 -16 -15 -23 0 -10 -14 -15 -24 -8 -2 1 -13 -7 -25 -17 -31 -28 -65
-101 -58 -125 3 -15 0 -21 -10 -21 -11 0 -14 -7 -11 -25 7 -32 -29 -46 -49
-19 -19 26 -17 98 4 115 15 13 43 68 43 86 0 13 -62 -52 -81 -87 -18 -33 -23
-35 -59 -32 -35 4 -40 1 -46 -22 -3 -15 -4 -40 -1 -55 5 -25 2 -30 -18 -35
-13 -3 -27 -15 -30 -26 -9 -28 -35 -25 -35 3 0 13 -6 32 -14 42 -12 16 -18 18
-37 8 -13 -6 -36 -14 -52 -17 -15 -4 -27 -13 -27 -21 0 -9 -9 -15 -21 -15 -12
0 -19 -5 -16 -12 6 -20 -43 -48 -72 -42 -19 4 -38 -3 -68 -25 -24 -17 -43 -36
-43 -41 0 -6 -12 -10 -26 -10 -15 0 -23 -4 -19 -10 4 -6 1 -17 -5 -25 -22 -27
6 -46 65 -44 28 1 58 -1 65 -6 9 -5 11 -4 6 4 -9 13 18 43 36 40 7 -2 24 1 37
5 19 7 28 4 42 -15 14 -19 20 -22 30 -11 16 15 46 16 55 0 5 -7 2 -9 -9 -5
-20 8 -41 -17 -34 -43 3 -11 1 -18 -4 -15 -5 3 -17 1 -27 -4 -15 -8 -24 -6
-40 9 -14 13 -35 20 -61 20 -39 0 -61 -13 -41 -25 13 -8 13 -35 0 -35 -18 0
-50 39 -44 55 4 10 0 15 -10 15 -9 0 -16 -8 -16 -17 0 -15 -1 -15 -12 -1 -13
16 -81 31 -72 16 3 -4 1 -8 -4 -8 -5 0 -12 9 -15 20 -6 25 -31 26 -56 1 -10
-10 -30 -21 -45 -25 -15 -4 -26 -14 -27 -24 0 -12 -2 -13 -6 -3 -4 10 -9 8
-18 -9 -7 -13 -21 -25 -31 -26 -11 -1 -37 -9 -59 -17 -31 -12 -41 -21 -43 -41
-2 -14 -8 -26 -13 -26 -6 0 -7 -5 -4 -10 3 -6 -1 -10 -9 -10 -22 0 -20 -12 5
-33 11 -10 18 -24 15 -32 -3 -8 6 -17 22 -23 34 -12 329 -14 337 -3 3 5 14 7
25 4 11 -3 27 0 35 7 8 6 19 9 25 5 25 -15 101 -16 124 -2 20 14 23 13 34 -4
12 -19 -1 -58 -78 -234 -16 -38 -19 -82 -6 -100 32 -44 99 43 166 215 12 30
28 62 36 71 28 31 64 113 54 123 -14 14 -12 26 3 26 13 0 42 88 32 98 -3 3
-13 6 -23 7 -37 3 -60 17 -66 38 -8 29 -8 42 0 34 4 -3 15 4 24 16 16 19 28
22 86 22 l68 0 58 88 c39 58 68 91 86 97 15 6 38 16 52 24 14 8 46 25 72 39
66 35 88 54 138 120 40 53 76 85 86 75 2 -3 -7 -45 -21 -94 -28 -101 -25 -144
11 -173 13 -10 24 -24 24 -30 0 -15 7 -14 42 7 23 13 32 14 35 5 3 -7 11 -13
18 -13 27 0 -13 -55 -49 -68 -32 -12 -36 -18 -46 -70 -23 -113 -32 -140 -60
-171 -16 -17 -33 -31 -38 -31 -6 0 -12 -7 -16 -15 -3 -8 -11 -12 -18 -10 -14
6 -16 72 -4 116 14 51 -11 38 -84 -41 -46 -50 -81 -80 -94 -80 -21 0 -76 -58
-76 -79 0 -43 171 -299 210 -313 10 -4 51 -10 91 -14 41 -3 81 -12 89 -19 8
-8 29 -17 45 -21 17 -4 33 -12 37 -18 5 -7 17 -5 38 7 l30 18 30 -33 c17 -18
33 -44 36 -58 13 -61 24 -121 34 -195 7 -44 22 -107 35 -140 13 -36 24 -95 28
-150 4 -50 9 -105 13 -122 l7 -33 668 0 669 0 0 58 c0 31 7 102 15 157 8 55
15 155 15 222 0 67 3 128 6 137 11 28 34 18 34 -13 0 -17 4 -32 9 -35 15 -10
88 -166 115 -248 26 -77 47 -125 102 -225 l29 -53 567 0 566 0 -30 108 c-35
125 -52 317 -43 479 6 90 4 108 -15 149 -14 34 -24 87 -32 190 l-12 144 41 34
c22 20 48 52 58 72 16 34 16 47 6 138 -14 118 -9 138 45 181 51 39 142 131
175 176 26 34 31 36 120 47 51 7 99 18 106 24 7 6 13 25 13 42 0 65 -32 224
-60 304 -36 100 -38 131 -7 160 38 36 52 28 64 -36 8 -39 26 -79 57 -127 26
-38 49 -81 53 -95 10 -41 41 -98 118 -215 39 -60 95 -158 123 -216 29 -58 61
-114 72 -124 11 -10 20 -27 20 -38 0 -12 10 -31 22 -44 21 -22 21 -25 5 -57
-19 -41 -19 -46 -9 -554 8 -382 9 -403 29 -430 25 -33 71 -41 100 -15 38 33
93 244 93 356 0 46 21 82 44 74 6 -2 22 -35 37 -73 14 -38 44 -105 66 -149
l41 -80 -8 -110 c-4 -60 -15 -131 -23 -156 -8 -26 -18 -72 -22 -103 l-7 -56
116 0 c64 0 116 4 116 8 0 4 22 42 48 83 99 154 144 353 111 499 -5 25 -14 90
-19 145 -11 132 -42 251 -80 304 -10 14 -26 55 -35 91 -8 36 -25 78 -36 93
-18 24 -19 34 -11 73 10 44 9 47 -30 92 l-40 46 23 19 c22 18 24 27 26 133 3
102 0 120 -23 181 -29 76 -65 182 -119 356 -21 65 -47 130 -60 145 -35 43 -45
68 -45 116 0 25 -13 98 -30 163 -16 65 -36 151 -45 191 -18 89 -32 116 -82
163 -38 36 -56 80 -94 229 -8 31 -24 58 -55 87 -44 42 -44 43 -44 112 0 67 -1
69 -51 132 -50 63 -50 64 -44 119 8 71 -14 180 -59 285 -24 58 -36 104 -41
163 l-7 82 88 1 c49 1 118 0 154 -1 36 -2 98 -3 138 -4 69 0 74 2 108 35 19
19 44 48 54 64 19 30 44 136 54 225 8 70 45 160 66 160 24 0 96 -74 104 -108
31 -125 58 -192 99 -238 60 -67 67 -83 68 -156 0 -61 7 -106 44 -293 31 -160
53 -242 90 -340 20 -53 40 -120 45 -148 13 -73 16 -274 6 -457 -10 -183 -2
-238 49 -342 30 -62 35 -83 35 -143 0 -89 13 -135 46 -166 14 -13 42 -49 61
-79 44 -68 47 -70 106 -70 55 0 60 -17 11 -33 -16 -6 -43 -22 -61 -36 -17 -14
-41 -33 -53 -41 -18 -13 -19 -17 -8 -33 20 -26 164 -50 258 -42 94 8 127 20
145 56 20 38 19 56 -5 69 -37 20 -42 44 -24 117 26 104 41 114 93 61 27 -28
39 -33 94 -36 112 -7 227 26 298 85 21 18 27 31 24 46 -3 12 0 32 7 43 7 12
28 46 45 75 44 73 43 108 -7 206 -31 60 -44 101 -55 175 -9 54 -24 126 -35
160 -39 127 -45 201 -44 533 0 267 4 345 22 475 11 85 24 184 27 220 11 120
36 234 65 301 16 36 34 96 40 135 7 47 25 98 55 159 43 85 63 152 99 335 8 41
20 95 26 120 7 25 13 113 13 195 2 172 -11 235 -66 331 -19 32 -65 127 -101
210 -77 174 -160 308 -236 379 -185 173 -211 213 -176 268 28 43 36 105 19
161 -26 87 -46 120 -79 129 -31 9 -78 75 -133 184 -34 69 -31 77 37 70 56 -5
102 -23 154 -59 32 -22 73 -23 174 -2 104 21 154 49 154 85 0 15 -3 29 -7 31
-21 9 -53 71 -53 102 0 38 11 53 64 85 19 12 37 29 40 37 12 30 -15 94 -59
143 -24 28 -46 60 -50 73 -29 104 -62 127 -129 88 -37 -21 -40 -22 -52 -5 -19
25 -37 206 -24 240 6 16 10 12 20 -25 7 -26 25 -57 44 -75 29 -27 40 -31 102
-33 l69 -3 54 53 c29 29 58 65 63 81 6 15 14 27 19 27 5 0 11 -12 15 -27 3
-16 15 -59 26 -97 18 -62 19 -76 8 -127 -21 -96 11 -193 72 -222 81 -37 78
-40 78 66 0 51 -3 97 -7 101 -12 11 -32 108 -26 123 3 7 11 13 19 13 12 0 14
62 14 378 0 366 -1 380 -20 397 -26 23 -26 45 0 52 18 5 20 14 20 89 0 62 -3
84 -13 84 -7 0 -31 13 -53 30 -47 34 -116 49 -139 30 -13 -10 -17 -7 -30 23
-8 20 -15 48 -15 62 0 15 -11 37 -26 52 -26 26 -27 26 -137 20 -62 -4 -190
-11 -286 -17 l-174 -9 -54 -36 c-29 -19 -59 -35 -67 -35 -25 0 -34 -29 -24
-73 5 -22 7 -46 4 -53 -3 -7 0 -14 5 -16 7 -2 8 -18 4 -41 -4 -20 -11 -35 -16
-32 -8 6 -49 -33 -49 -46 0 -5 6 -12 13 -16 23 -14 47 -57 47 -84 0 -19 -11
-35 -36 -54 -42 -32 -44 -68 -4 -73 31 -4 50 -28 50 -62 0 -35 51 -68 70 -45
18 22 32 19 63 -16 20 -23 31 -28 40 -21 23 20 63 -29 41 -51 -3 -3 -7 -30 -8
-59 -2 -40 4 -66 25 -108 15 -30 30 -70 34 -88 9 -43 -14 -79 -50 -79 -15 0
-31 -5 -37 -11 -7 -7 -21 -6 -45 5 -32 13 -37 12 -53 -2 -17 -16 -21 -16 -50
1 -25 15 -34 16 -50 6 -26 -16 -39 -15 -75 4 -18 9 -42 13 -61 10 -18 -4 -46
0 -65 8 -23 9 -40 11 -50 5 -27 -17 -58 -9 -116 30 l-58 39 -9 -25 c-5 -15 -4
-53 4 -96 6 -40 11 -76 11 -82 0 -5 0 -56 -1 -112 -2 -111 7 -193 21 -193 5 0
7 -15 5 -32 -2 -18 0 -40 5 -49 5 -9 9 -39 10 -67 2 -44 4 -49 25 -49 24 0 54
-24 54 -43 0 -7 11 -25 25 -42 14 -16 25 -35 25 -41 0 -7 -20 -24 -45 -39
l-45 -28 0 -59 c0 -39 -9 -81 -26 -127 -42 -110 -54 -187 -54 -344 0 -163 3
-171 79 -247 52 -52 84 -59 179 -39 89 19 104 27 147 75 74 82 151 116 233
105 53 -8 55 -27 6 -85 -67 -80 -67 -108 -3 -197 39 -56 74 -150 85 -235 9
-61 36 -103 78 -121 52 -22 61 -46 46 -127 -18 -92 -8 -290 20 -398 20 -78 20
-92 10 -219 -7 -75 -18 -151 -25 -168 -25 -59 -134 -130 -265 -172 -104 -33
-204 -45 -375 -44 -190 0 -299 13 -334 39 -58 44 -66 68 -116 337 -34 181 -36
385 -6 640 30 250 42 297 103 390 52 82 51 113 -7 171 -76 77 -112 62 -217
-88 -40 -56 -53 -67 -76 -67 -34 0 -104 51 -151 110 -34 42 -115 90 -153 90
-33 0 -44 11 -46 48 -1 18 -13 86 -26 151 -25 123 -24 202 4 322 13 52 4 100
-33 180 -23 51 -97 105 -97 70 0 -5 -13 -22 -28 -38 -15 -15 -34 -48 -42 -73
-7 -25 -22 -57 -33 -73 -15 -22 -16 -28 -4 -32 14 -6 50 6 80 27 14 11 19 10
27 -2 5 -8 5 -17 1 -20 -5 -3 -11 -14 -15 -26 -3 -11 -24 -28 -49 -38 -59 -24
-98 -46 -129 -72 -16 -13 -60 -30 -105 -40 -84 -18 -148 -46 -156 -66 -2 -7 0
-21 5 -31 11 -21 -5 -47 -29 -47 -23 0 -91 -38 -118 -67 -33 -36 -45 -84 -46
-180 0 -80 11 -123 71 -279 33 -87 49 -108 102 -135 46 -23 72 -14 108 38 29
42 181 192 213 210 30 17 146 69 175 77 17 6 22 3 22 -11 0 -21 -56 -119 -100
-174 -108 -135 -130 -189 -92 -227 30 -30 32 -48 11 -87 -15 -27 -18 -48 -14
-78 6 -48 -12 -93 -36 -89 -9 1 -26 -9 -40 -24 -19 -20 -25 -40 -30 -99 -10
-123 -67 -185 -171 -185 -73 0 -118 50 -118 130 0 41 -18 84 -146 345 -30 61
-54 119 -54 129 0 11 -11 34 -25 52 -14 18 -25 41 -25 51 0 29 -13 41 -45 45
-30 3 -30 4 -27 56 3 32 -1 59 -8 68 -11 12 -16 10 -36 -20 -13 -19 -24 -39
-24 -43 -1 -4 -9 -18 -19 -30 l-19 -23 -74 19 c-101 26 -251 72 -263 82 -22
16 -200 81 -268 96 -83 19 -95 27 -143 100 -38 57 -38 63 -11 138 18 53 17
315 -2 365 -24 63 -40 95 -62 121 -24 31 -20 43 41 120 26 34 45 77 69 157
l34 111 -27 83 c-14 46 -35 144 -46 218 -11 74 -27 158 -36 185 -29 87 -95
238 -129 291 -40 62 -136 145 -202 174 -89 39 -91 44 -88 186 2 69 4 126 6
128 2 1 22 16 44 32 59 43 74 65 74 104 0 43 -20 102 -36 107 -14 5 -43 -47
-43 -79 0 -33 -14 -50 -34 -42 -12 5 -16 15 -13 38 8 62 -35 104 -91 90 -15
-4 -23 -17 -28 -40 -7 -37 -16 -41 -56 -20 -15 8 -40 17 -57 21 -49 10 -38 28
12 21 61 -9 75 9 59 70 -22 83 -12 120 51 178 20 19 27 34 25 54 -3 27 -3 27
-78 26 -52 -1 -90 -8 -123 -23 -27 -12 -56 -21 -65 -21 -9 0 -34 -5 -54 -10
l-37 -11 -3 -62 c-3 -60 -4 -63 -38 -79 -22 -12 -38 -14 -44 -8 -15 15 -37 12
-90 -14 -53 -25 -64 -25 -111 8 -48 34 -132 29 -230 -14 -44 -19 -82 -37 -85
-40 -3 -3 -22 -16 -43 -29 -64 -39 -75 -87 -29 -137 23 -27 43 -34 142 -56 63
-15 162 -34 220 -44 61 -10 108 -23 113 -31 5 -8 16 -11 26 -8 10 3 31 -1 47
-9 16 -9 57 -17 91 -19 65 -3 109 -27 99 -54 -3 -8 2 -13 15 -13 15 0 19 4 15
16 -5 14 0 15 41 9 27 -4 51 -9 55 -11 4 -3 -4 -22 -18 -43 -23 -35 -27 -38
-49 -27 -14 6 -25 16 -25 22 0 7 -11 14 -25 16 -17 4 -25 1 -25 -8 0 -23 -47
-27 -102 -8 -29 9 -64 18 -78 19 -37 3 -38 3 -43 23 -4 15 -5 15 -6 -2 -1 -13
-6 -16 -18 -11 -18 8 -72 19 -130 28 -18 3 -57 17 -88 31 -31 14 -53 21 -50
16 6 -9 -32 -6 -125 12 -30 6 -74 12 -98 13 -24 1 -48 7 -53 12 -6 6 -11 42
-11 79 -1 74 -9 94 -40 94 -23 0 -78 -27 -98 -49 -8 -9 -53 -43 -99 -76 -76
-54 -113 -96 -99 -110 3 -3 28 -8 56 -12 27 -3 56 -9 62 -13 18 -11 47 -385
32 -407 -9 -14 -59 -19 -257 -28 -77 -3 -154 -11 -172 -16 -46 -14 -56 -54
-44 -160 5 -46 15 -156 21 -244 6 -88 18 -189 25 -225 21 -101 25 -153 16
-212 -5 -30 -5 -74 -1 -99 5 -25 12 -102 15 -170 4 -68 12 -204 20 -302 11
-158 15 -181 34 -201 13 -14 27 -52 37 -96 17 -83 20 -90 38 -90 19 0 69 79
66 104 -7 72 -3 211 10 266 11 51 21 71 48 96 35 31 36 37 21 94 -3 12 6 15
46 14 28 0 53 4 57 9 3 6 4 71 1 145 -6 123 -5 136 12 148 30 22 64 17 75 -10
5 -14 10 -98 12 -188 l3 -162 -27 -14 c-34 -16 -34 -23 -4 -59 13 -15 38 -57
56 -92 30 -61 31 -65 14 -78 -10 -7 -28 -13 -41 -13 -20 0 -77 -22 -92 -36 -3
-2 8 -17 23 -33 28 -29 29 -29 75 -16 25 7 63 16 84 20 36 6 38 5 32 -14 -3
-12 -24 -51 -46 -88 -36 -62 -49 -103 -33 -103 4 0 42 18 86 40 44 22 83 40
87 40 3 0 6 -14 5 -30 -1 -29 -32 -70 -53 -70 -5 0 -17 -10 -26 -22 -8 -13
-19 -23 -23 -23 -4 0 -21 -9 -37 -20 -60 -40 -102 -62 -192 -101 -18 -8 -33
-21 -33 -29 0 -10 -10 -15 -30 -15 -16 0 -30 -4 -30 -10 0 -5 -5 -10 -10 -10
-15 0 -93 -51 -87 -57 3 -2 -3 -13 -14 -24 -10 -10 -19 -28 -19 -38 0 -30 -28
-34 -32 -5 l-3 25 -32 -31 c-19 -19 -37 -29 -44 -24 -8 4 -9 3 -5 -4 4 -8 0
-12 -11 -12 -10 0 -30 -11 -45 -25 -15 -14 -32 -25 -39 -25 -6 0 -18 -8 -25
-17 -26 -34 -16 35 12 82 l25 44 -25 17 c-34 21 -33 36 5 78 57 65 25 116 -72
116 -33 0 -51 -5 -64 -20 -24 -26 -28 -26 -77 10 -49 36 -58 37 -58 8 -1 -32
-44 -78 -73 -78 -34 0 -78 52 -99 118 -23 73 -22 80 2 50 19 -25 83 -48 134
-48 24 0 26 4 26 39 0 47 1 47 122 57 48 3 92 11 97 18 5 6 13 38 16 71 4 33
16 78 27 100 22 46 23 57 7 310 -6 105 -14 244 -17 310 -6 102 -10 125 -28
148 -17 20 -24 47 -29 110 -3 45 -8 89 -11 98 -2 9 5 26 16 39 33 38 36 69 12
114 -26 49 -27 55 -7 92 16 32 20 214 6 312 -13 93 -18 95 -233 91 -299 -5
-296 -5 -313 12 -15 15 -42 147 -60 289 -11 92 -16 89 265 116 189 18 247 27
262 40 16 15 18 33 17 148 -1 125 -15 247 -32 273 -5 9 -35 12 -92 11 -70 -2
-88 1 -102 15 -17 17 -17 19 6 38 15 12 38 19 67 19 35 0 49 6 74 30 17 17 33
30 36 30 3 0 30 -11 60 -25 43 -20 71 -25 130 -25 83 0 114 -11 114 -40 0 -33
-28 -50 -84 -50 -80 0 -80 -1 -72 -200 3 -93 10 -180 16 -194 12 -33 51 -40
133 -23 51 11 78 24 113 53 135 113 216 172 301 216 46 25 68 61 53 87 -6 12
-19 21 -28 21 -31 0 -56 26 -66 71 -9 37 -15 44 -36 44 -20 0 -27 -8 -41 -49
-10 -26 -21 -51 -24 -54 -3 -4 -36 -8 -73 -10 -76 -4 -82 -1 -100 63 -8 29 -8
59 0 110 12 82 12 82 10 158 l-2 57 -1152 0 c-633 0 -1149 -2 -1147 -4 7 -7
124 -26 219 -36 97 -10 266 -41 356 -64 34 -9 93 -16 130 -16 57 0 78 -5 122
-29 29 -16 84 -39 122 -51 57 -18 82 -33 135 -82 36 -34 65 -65 65 -69 0 -5
-21 0 -47 10 -27 10 -70 21 -98 25 -27 4 -84 16 -125 27 -67 17 -486 113 -535
123 -11 2 -48 11 -82 20 -34 9 -102 25 -150 36 -146 32 -225 51 -291 71 -34
10 -76 19 -92 19 -16 0 -32 5 -35 10 -4 6 -95 10 -241 10 l-234 0 0 -874z
m4255 498 c34 -32 36 -36 15 -30 -14 4 -33 8 -43 7 -18 0 -39 36 -30 52 7 13
17 8 58 -29z m-2945 -109 c0 -8 -9 -15 -19 -15 -24 0 -36 16 -19 23 24 10 38
7 38 -8z m7004 -58 c14 -40 -10 -63 -48 -46 -22 10 -24 14 -11 21 8 5 15 17
15 27 0 40 30 39 44 -2z m-3710 17 c19 -7 20 -24 4 -59 -23 -50 -56 -20 -37
35 12 33 11 32 33 24z m-2954 -44 c0 -5 -5 -10 -11 -10 -5 0 -7 5 -4 10 3 6 8
10 11 10 2 0 4 -4 4 -10z m7430 -9 c15 -28 12 -73 -6 -99 -26 -37 -34 -25 -34
48 0 55 3 70 15 70 8 0 19 -9 25 -19z m-7272 -34 c10 -9 19 -32 20 -52 2 -32
0 -35 -25 -36 -32 -1 -57 -3 -130 -14 -46 -6 -53 -5 -53 9 0 10 -13 22 -30 27
-41 15 -39 33 3 25 25 -4 38 0 60 19 15 13 27 28 27 32 0 16 109 7 128 -10z
m-473 -97 c3 -5 -1 -10 -10 -10 -9 0 -13 5 -10 10 3 6 8 10 10 10 2 0 7 -4 10
-10z m3157 -98 c-7 -2 -12 -15 -12 -28 0 -18 -5 -24 -22 -24 -21 1 -21 2 -5
11 9 5 17 18 17 28 0 22 10 32 23 24 8 -5 7 -8 -1 -11z m130 -8 c29 -27 23
-54 -11 -54 -17 0 -33 -5 -36 -10 -4 -6 -12 -4 -21 5 -9 8 -25 15 -37 15 -19
1 -20 2 -7 13 9 7 15 22 14 35 -1 22 2 23 39 18 22 -3 49 -13 59 -22z m4463
-67 c0 -26 -20 -25 -23 2 -3 16 1 22 10 19 7 -3 13 -12 13 -21z m-4911 -11
c-6 -16 -50 -30 -65 -20 -17 10 11 34 42 34 20 0 27 -4 23 -14z m-3583 -311
c22 -14 45 -37 51 -50 6 -14 15 -25 20 -25 4 0 8 -13 8 -30 0 -17 7 -33 18
-39 9 -6 11 -11 5 -11 -7 0 -13 -6 -13 -14 0 -25 -33 -116 -42 -116 -26 0 -48
23 -48 49 0 15 -9 38 -19 50 -11 12 -23 41 -26 64 -4 23 -18 60 -30 83 -21 37
-21 42 -6 52 24 16 38 14 82 -13z m3122 -21 c22 -4 37 -12 37 -21 0 -23 -94
-14 -98 10 -4 19 4 20 61 11z m4375 -296 c2 -12 -2 -15 -17 -11 -12 3 -21 12
-21 20 0 20 34 12 38 -9z m423 -127 c36 -36 36 -52 3 -109 -14 -24 -24 -52
-21 -62 2 -10 2 -23 -2 -29 -9 -15 -99 -20 -184 -11 -74 8 -104 28 -91 60 4 8
11 37 17 63 6 29 17 52 28 58 11 5 19 7 19 3 0 -4 11 3 25 16 13 13 32 21 42
18 10 -3 32 1 48 8 50 21 84 17 116 -15z m734 0 c3 -5 1 -12 -5 -16 -5 -3 -10
1 -10 9 0 18 6 21 15 7z m-6088 -96 c19 -8 47 -15 62 -15 14 0 33 -4 41 -10 8
-5 19 -5 25 0 6 5 21 -1 37 -14 21 -16 31 -36 39 -79 5 -32 9 -72 7 -90 l-3
-32 -75 -6 c-41 -4 -119 -7 -173 -8 -96 -1 -98 -1 -107 25 -11 28 -13 166 -4
201 4 16 18 25 48 32 59 13 63 13 103 -4z m-2310 -6 c70 -16 97 -31 107 -62
12 -33 -14 -67 -51 -67 -16 0 -30 -11 -44 -35 -11 -19 -29 -37 -40 -40 -10 -4
-19 -15 -19 -26 0 -10 -7 -19 -15 -19 -17 0 -19 -9 -6 -29 6 -10 3 -27 -9 -52
-30 -57 -42 -168 -32 -291 4 -63 6 -67 31 -70 36 -4 34 -32 -2 -36 -23 -3 -26
-6 -16 -18 6 -8 22 -14 35 -14 12 0 25 -4 28 -9 11 -16 -6 -41 -27 -41 -19 0
-19 -1 -3 -19 17 -18 16 -20 -6 -26 -41 -13 -61 -42 -54 -81 4 -19 3 -34 -3
-34 -15 0 -32 62 -25 97 8 41 -8 63 -47 63 -15 0 -31 5 -34 11 -9 14 24 38 55
39 29 0 67 19 40 20 -12 0 -12 2 -2 9 10 6 8 10 -10 14 -19 5 -25 13 -26 39
-1 54 -14 108 -24 108 -6 0 -9 23 -7 53 5 105 4 107 -41 107 -40 0 -40 0 -40
40 0 31 -3 38 -15 34 -11 -4 -15 1 -15 17 0 43 -12 69 -30 69 -10 0 -20 -6
-23 -12 -3 -9 -13 -3 -31 15 -30 32 -32 45 -12 61 8 6 16 20 18 31 2 15 -6 22
-37 33 -75 25 -94 61 -52 100 26 24 56 28 279 30 87 1 179 -3 205 -9z m2711
-78 c8 -4 13 -11 11 -15 -4 -11 12 -169 21 -210 12 -57 20 -118 27 -207 5 -72
4 -78 -16 -89 -18 -9 -21 -17 -16 -39 4 -19 0 -35 -15 -54 -12 -15 -25 -25
-30 -22 -11 7 -18 79 -25 265 -3 85 -8 195 -12 243 -8 112 11 156 55 128z
m-3141 -67 c-3 -3 -12 -4 -19 -1 -8 3 -5 6 6 6 11 1 17 -2 13 -5z m7953 -94
c0 -5 7 -10 15 -10 18 0 19 -12 3 -28 -19 -19 -25 -15 -30 18 -3 17 -1 30 4
30 4 0 8 -4 8 -10z m-5317 -561 c-3 -11 -11 -18 -17 -16 -14 5 -20 33 -11 55
6 16 7 16 20 -1 7 -10 11 -27 8 -38z m-2453 11 c0 -5 -4 -10 -10 -10 -5 0 -10
5 -10 10 0 6 5 10 10 10 6 0 10 -4 10 -10z m1386 -16 c-3 -7 -1 -16 5 -19 5
-4 6 -11 2 -18 -3 -6 -6 -30 -4 -52 1 -27 -4 -46 -13 -54 -20 -17 -139 -20
-197 -5 -45 12 -89 33 -89 44 0 14 61 70 77 71 10 0 13 3 6 6 -26 10 -11 23
27 23 26 0 38 -4 36 -12 -1 -7 -1 -10 1 -5 3 4 11 7 19 7 8 0 14 4 14 10 0 5
13 7 29 4 16 -3 31 -2 34 2 3 5 17 10 32 10 19 2 25 -2 21 -12z m-1177 -121
c-1 -27 -4 -39 -6 -28 -3 11 -12 28 -20 37 -16 18 -10 38 13 38 10 0 14 -12
13 -47z m1431 -185 c0 -32 -3 -38 -21 -38 -28 0 -59 18 -59 35 0 25 22 64 39
68 24 5 41 -22 41 -65z m-777 -6 c40 -35 14 -43 -157 -48 -72 -2 -156 -6 -186
-9 -222 -22 -271 -25 -317 -20 -29 4 -53 10 -53 15 0 19 28 25 115 26 50 0
117 7 150 16 33 9 91 16 129 17 37 1 72 3 76 6 4 2 41 5 82 6 42 1 82 5 88 9
16 10 50 1 73 -18z m2217 -82 c0 -5 -5 -10 -11 -10 -5 0 -8 -4 -4 -9 3 -5 1
-12 -5 -16 -11 -7 -13 5 -4 29 7 18 24 22 24 6z m1370 -26 c58 -20 109 -38
113 -41 4 -3 -14 -15 -41 -29 -68 -34 -155 -138 -260 -309 -72 -118 -198 -379
-193 -400 1 -5 0 -24 -4 -42 -5 -27 -11 -33 -31 -33 -14 0 -37 -9 -50 -19 -24
-19 -25 -19 -73 5 -27 13 -62 26 -77 30 -47 12 -94 45 -94 65 0 10 7 19 15 19
9 0 18 7 21 15 3 8 14 17 23 20 16 5 172 -42 218 -67 28 -14 43 -3 22 16 -18
18 -182 77 -231 83 -34 5 -39 2 -57 -28 -24 -42 -42 -62 -47 -56 -3 3 9 26 27
51 21 32 40 49 59 53 26 5 38 25 118 187 122 245 252 433 341 493 46 31 78 29
201 -13z m-3608 -72 c2 -5 21 -16 43 -26 l40 -17 -34 6 c-18 3 -44 5 -57 5
-17 0 -24 6 -24 20 0 19 25 29 32 12z m132 -14 c10 -38 7 -58 -8 -58 -18 0
-30 33 -21 60 8 26 21 25 29 -2z m245 -18 c9 -4 39 -14 66 -22 42 -12 50 -18
50 -37 0 -36 -37 -45 -71 -19 -42 34 -126 37 -180 7 -31 -16 -47 -20 -54 -13
-15 15 -4 37 23 49 12 6 27 21 34 35 21 42 51 42 132 0z m52 -207 c8 -51 5
-56 -51 -70 -30 -8 -65 -17 -77 -20 -19 -4 -23 -1 -23 20 0 13 7 30 15 37 33
27 133 51 136 33z m394 -9 c13 -13 16 -37 15 -123 -1 -58 1 -118 5 -134 14
-54 -49 -105 -74 -59 -5 10 -10 51 -10 91 0 64 2 74 19 78 26 7 25 23 -6 78
-29 53 -25 85 11 85 13 0 31 -7 40 -16z m205 -30 c22 -4 43 -10 46 -15 10 -16
-21 -50 -55 -59 -59 -16 -88 16 -76 84 7 33 7 34 26 15 10 -10 37 -22 59 -25z
m-1626 -250 c44 -17 -13 -118 -74 -131 -19 -4 -72 -8 -118 -7 -95 1 -108 8
-118 70 -6 38 -4 42 17 47 13 3 42 4 64 2 30 -3 199 16 212 24 1 1 8 -2 17 -5z
m3564 -264 c23 -7 42 -17 42 -22 0 -11 -7 -10 -74 15 -33 12 -61 28 -64 35 -3
11 1 11 24 0 16 -8 48 -20 72 -28z m2495 -10 c27 -21 45 -86 46 -163 0 -21 9
-68 20 -105 35 -122 40 -156 40 -273 0 -103 -2 -118 -19 -134 -27 -25 -64 -13
-83 28 -9 18 -23 82 -32 143 -19 134 -46 219 -80 250 -21 20 -25 32 -25 83 0
53 4 63 36 102 20 24 40 54 45 66 10 28 19 29 52 3z m-2560 -24 c18 -8 64 -25
102 -37 132 -41 140 -51 109 -125 -17 -41 -66 -177 -166 -464 -33 -96 -67
-184 -74 -195 -8 -11 -14 -29 -14 -40 0 -11 -9 -33 -20 -50 -11 -16 -20 -45
-20 -63 0 -20 -4 -31 -10 -27 -5 3 -10 0 -10 -7 0 -8 -14 -36 -31 -62 l-30
-48 -50 6 c-32 4 -49 3 -49 -4 0 -7 -6 -8 -19 0 -27 14 -41 13 -41 -5 0 -8 -7
-15 -15 -15 -10 0 -15 10 -15 33 0 24 3 28 10 17 11 -17 13 -10 4 14 -3 9 -13
16 -21 16 -8 0 -11 5 -8 10 4 6 11 8 16 5 11 -7 11 -3 3 20 -6 14 -10 12 -25
-12 -11 -15 -19 -37 -20 -48 -1 -17 -2 -17 -6 -3 -5 18 33 144 50 165 5 7 6
17 3 22 -4 5 -2 12 4 16 5 3 10 15 10 26 0 10 4 27 10 37 5 9 20 51 34 92 13
41 47 140 76 220 28 80 69 197 92 260 22 63 43 120 48 125 4 6 11 32 15 59 5
41 4 48 -8 43 -28 -11 -28 7 0 19 16 7 30 13 31 13 2 1 18 -6 35 -13z m264
-23 c-25 -25 -28 -26 -65 -14 -83 28 -85 48 -3 29 45 -10 54 -9 68 5 9 9 19
14 22 11 3 -2 -7 -17 -22 -31z m-2316 -121 c-2 -20 -6 -41 -9 -47 -4 -5 -7
-13 -7 -16 0 -13 -60 -79 -72 -79 -17 0 -26 41 -15 70 12 31 92 123 100 115 4
-3 5 -23 3 -43z m4204 -29 c38 -18 45 -32 18 -34 -10 -1 -29 -3 -43 -4 -37 -4
-50 4 -50 31 0 29 24 31 75 7z m115 -205 c39 -31 44 -50 25 -93 -18 -44 -20
-104 -3 -140 9 -19 9 -40 0 -88 -19 -100 -63 -112 -76 -20 -3 25 -24 84 -46
130 -42 90 -74 186 -68 205 6 16 78 37 111 32 16 -2 42 -14 57 -26z m-4022
-43 c7 -25 12 -62 11 -83 l-1 -37 -12 34 c-10 28 -26 45 -54 57 -5 2 32 73 38
74 3 0 11 -20 18 -45z m-275 -313 c-8 -132 -1 -127 -192 -129 -160 -3 -163 -2
-187 22 -29 29 -35 89 -7 78 11 -4 14 -3 9 6 -12 18 12 40 53 47 20 4 42 11
49 17 7 6 32 14 55 18 92 17 190 39 195 44 3 3 11 0 18 -6 10 -8 11 -33 7 -97z
m-613 -652 c0 -11 -4 -20 -10 -20 -5 0 -10 2 -10 4 0 2 -3 11 -6 20 -4 11 -1
16 10 16 9 0 16 -8 16 -20z m4210 -218 c0 -31 6 -81 14 -111 8 -31 19 -81 26
-111 15 -66 52 -134 85 -156 23 -15 24 -20 18 -77 -6 -58 -32 -114 -47 -100
-3 3 -6 -1 -6 -9 0 -14 5 -15 30 -5 33 13 43 5 80 -64 10 -20 36 -49 57 -64
51 -39 53 -42 53 -103 0 -29 6 -68 14 -86 19 -45 96 -157 112 -163 9 -3 14
-23 14 -58 0 -29 7 -72 15 -96 19 -53 14 -74 -14 -60 -30 17 -118 11 -141 -9
-27 -23 -101 -35 -112 -18 -11 18 -10 46 2 53 6 3 10 13 10 21 0 12 -7 14 -30
9 -26 -6 -35 -2 -60 25 -19 20 -30 43 -30 61 0 43 27 37 77 -18 31 -34 43 -42
43 -28 0 32 -49 103 -92 132 -38 26 -43 34 -63 113 -18 72 -64 184 -108 265
-9 18 -31 356 -28 443 1 19 14 66 31 105 29 71 32 102 14 177 -5 24 -5 24 15
6 16 -15 21 -31 21 -74z m-2520 -1052 c0 -5 6 -7 13 -4 7 2 17 -8 24 -26 6
-17 19 -30 28 -30 14 0 17 -6 12 -35 -3 -19 -2 -35 4 -35 5 0 9 5 9 11 0 7 7
8 18 4 9 -5 28 -9 42 -10 29 -2 45 -50 36 -105 -17 -93 -26 -150 -31 -210 -4
-35 -11 -72 -16 -82 -5 -9 -9 -32 -9 -50 0 -18 -8 -62 -17 -98 -9 -36 -17 -92
-18 -125 -1 -33 -7 -85 -13 -115 -16 -72 -72 -252 -83 -265 -5 -5 -9 -15 -9
-23 0 -8 -9 -27 -20 -42 -11 -16 -20 -41 -19 -57 3 -41 -10 -90 -38 -142 -74
-136 -102 -192 -123 -251 -23 -62 -98 -160 -123 -160 -5 0 -17 -9 -26 -19 -23
-26 -103 -38 -119 -18 -15 18 -1 62 28 87 11 10 20 24 20 33 0 9 4 18 9 21 5
4 24 52 41 109 17 56 35 111 40 122 17 36 40 110 40 126 0 9 11 29 25 45 14
16 25 33 25 37 0 5 36 44 80 87 82 80 130 158 144 230 4 19 11 44 16 55 4 11
18 47 30 80 12 33 26 68 31 77 11 22 11 59 1 76 -13 19 -69 46 -152 72 -41 12
-80 28 -87 34 -13 12 -19 53 -11 76 27 76 105 313 128 385 36 118 47 145 60
145 5 0 10 -4 10 -10z m2613 -150 c16 -27 16 -30 2 -30 -12 0 -35 36 -35 56 0
14 18 0 33 -26z m-3068 -610 c3 -5 1 -10 -4 -10 -6 0 -11 5 -11 10 0 6 2 10 4
10 3 0 8 -4 11 -10z m320 -96 c52 -21 45 -38 -12 -30 -56 8 -113 32 -113 48 0
13 77 2 125 -18z m-441 -106 c-36 -44 -74 -80 -74 -72 0 8 81 94 89 94 2 0 -4
-10 -15 -22z m-678 -355 c-7 -7 -26 7 -26 19 0 6 6 6 15 -2 9 -7 13 -15 11
-17z m729 -364 c13 -25 14 -37 5 -65 -6 -19 -15 -34 -20 -34 -5 0 -14 -2 -22
-5 -14 -6 -16 43 -3 103 9 40 20 41 40 1z m-22 -135 c-9 -15 -19 -21 -21 -15
-6 19 6 41 23 41 14 0 13 -3 -2 -26z"/>
<path d="M480 7354 c0 -8 5 -12 10 -9 6 4 8 11 5 16 -9 14 -15 11 -15 -7z"/>
<path d="M800 7350 c0 -5 7 -10 15 -10 8 0 15 5 15 10 0 6 -7 10 -15 10 -8 0
-15 -4 -15 -10z"/>
<path d="M3237 9196 c-5 -52 -2 -71 13 -102 11 -21 20 -43 20 -50 0 -6 9 -19
19 -28 18 -16 20 -16 35 6 9 12 16 28 16 34 0 7 12 26 26 44 l26 31 -25 23
c-15 14 -28 40 -32 64 -7 42 -7 42 -49 42 l-43 0 -6 -64z"/>
<path d="M3544 9174 c4 -47 12 -97 18 -110 8 -18 8 -31 0 -49 -25 -54 -6 -115
35 -115 20 0 161 76 191 103 12 11 22 30 22 41 0 11 12 32 26 47 20 21 27 40
31 86 3 32 9 64 15 71 8 9 -26 12 -167 12 l-178 0 7 -86z"/>
<path d="M3908 9253 c6 -2 18 -2 25 0 6 3 1 5 -13 5 -14 0 -19 -2 -12 -5z"/>
<path d="M4144 9251 c18 -4 36 -17 46 -36 25 -45 63 -60 114 -45 22 7 73 19
111 26 80 15 203 49 212 58 4 3 -110 5 -253 5 -142 -1 -246 -4 -230 -8z"/>
<path d="M4810 9244 c0 -8 5 -70 10 -137 15 -166 26 -190 72 -147 25 23 124
45 268 59 239 24 310 36 351 59 34 19 34 19 37 100 l3 82 -371 0 c-330 0 -370
-2 -370 -16z"/>
<path d="M5713 9204 c9 -83 26 -104 88 -104 28 0 58 4 68 10 10 5 84 11 164
12 174 4 187 10 187 90 l0 48 -256 0 -257 0 6 -56z"/>
<path d="M6360 9241 c-15 -30 -12 -66 9 -92 19 -23 24 -24 158 -23 110 0 145
4 174 18 38 18 59 50 59 91 l0 25 -195 0 c-182 0 -195 -1 -205 -19z"/>
<path d="M6844 9243 c3 -10 8 -30 11 -45 12 -47 49 -62 145 -60 99 2 110 11
108 79 l-2 43 -134 0 c-122 0 -133 -1 -128 -17z"/>
<path d="M7251 9247 c-6 -8 -14 -27 -17 -43 -5 -26 0 -35 40 -72 25 -23 50
-42 55 -42 23 0 43 14 56 41 22 42 18 63 -17 98 -24 23 -41 31 -69 31 -20 0
-42 -6 -48 -13z"/>
<path d="M7474 9243 c3 -10 8 -39 11 -65 8 -54 32 -81 90 -101 80 -28 35 -71
-130 -124 -44 -14 -96 -37 -115 -49 -19 -13 -45 -24 -57 -24 -22 0 -66 -46
-60 -64 9 -26 60 -47 152 -62 255 -42 309 -106 386 -452 25 -113 42 -148 58
-122 26 39 33 251 12 354 -12 55 -10 133 5 284 6 68 13 75 77 87 73 14 68 68
-14 135 -24 19 -76 63 -116 97 -133 113 -152 123 -233 123 -63 0 -71 -2 -66
-17z"/>
<path d="M9161 9108 c-2 -123 26 -188 80 -188 17 0 19 8 19 90 0 83 -2 91 -23
105 -13 8 -30 26 -37 40 -24 46 -37 30 -39 -47z"/>
<path d="M5900 8744 c-102 -6 -197 -12 -211 -13 -15 -1 -37 -9 -49 -19 -21
-17 -21 -19 -5 -35 14 -15 40 -17 183 -17 218 0 718 18 806 30 83 11 101 24
67 51 -22 18 -40 19 -315 17 -160 0 -374 -7 -476 -14z"/>
<path d="M3834 8586 c-6 -6 -8 -20 -4 -31 6 -16 8 -15 13 10 6 35 6 37 -9 21z"/>
<path d="M8420 8140 c0 -5 5 -10 10 -10 6 0 10 5 10 10 0 6 -4 10 -10 10 -5 0
-10 -4 -10 -10z"/>
<path d="M5190 7762 c0 -12 19 -26 26 -19 2 2 -2 10 -11 17 -9 8 -15 8 -15 2z"/>
<path d="M5785 7129 c-427 -13 -411 -10 -396 -68 l8 -26 358 4 c346 3 485 -2
485 -18 0 -9 -93 -15 -455 -32 -132 -6 -271 -14 -310 -17 -68 -7 -70 -8 -73
-36 -2 -16 1 -33 7 -39 14 -14 942 -10 977 3 29 11 47 45 39 71 -4 12 -22 27
-41 35 -39 16 -43 29 -15 44 29 15 36 48 15 71 -16 17 -31 19 -183 17 -91 0
-278 -5 -416 -9z"/>
<path d="M6220 6859 c-69 -4 -272 -12 -453 -19 -357 -14 -369 -16 -352 -67
l10 -28 125 -3 c69 -2 286 2 484 7 314 9 361 12 377 27 24 22 24 39 -2 63 -28
26 -43 27 -189 20z"/>
<path d="M8930 6841 c-31 -35 -53 -98 -58 -166 -4 -60 -1 -74 16 -95 20 -25
22 -25 196 -28 l176 -3 0 153 -1 153 -20 -27 c-16 -22 -29 -28 -60 -28 -21 0
-39 4 -39 9 0 13 -48 29 -120 41 -78 12 -71 12 -90 -9z"/>
<path d="M3000 6116 c-14 -16 -20 -31 -16 -42 6 -14 17 -16 79 -11 39 3 80 8
90 12 33 14 18 32 -33 39 -27 4 -52 11 -55 16 -11 18 -41 11 -65 -14z"/>
<path d="M1891 4044 c0 -11 3 -14 6 -6 3 7 2 16 -1 19 -3 4 -6 -2 -5 -13z"/>
<path d="M498 3733 c-28 -7 -21 -20 15 -31 58 -18 74 -20 92 -10 12 8 20 6 26
-3 6 -11 11 -11 20 -2 9 9 3 15 -27 28 -21 8 -44 13 -51 11 -7 -3 -13 -1 -13
4 0 10 -30 11 -62 3z"/>
<path d="M1191 3694 c0 -11 3 -14 6 -6 3 7 2 16 -1 19 -3 4 -6 -2 -5 -13z"/>
<path d="M685 3680 c3 -5 13 -10 21 -10 8 0 14 5 14 10 0 6 -9 10 -21 10 -11
0 -17 -4 -14 -10z"/>
<path d="M977 3634 c-15 -15 -6 -24 24 -24 20 0 29 4 27 13 -5 14 -40 21 -51
11z"/>
<path d="M7269 3570 c-9 -5 -22 -22 -28 -38 -28 -68 40 -117 74 -52 34 65 5
120 -46 90z"/>
<path d="M268 2893 c-16 -2 -28 -8 -28 -12 0 -5 -20 -4 -45 2 -36 8 -48 7 -62
-5 -10 -8 -25 -17 -33 -20 -8 -3 38 -4 103 -3 65 1 120 -2 123 -7 3 -4 14 -8
25 -8 11 0 24 -11 31 -25 6 -14 14 -21 18 -15 10 16 153 49 171 39 24 -12 132
-18 152 -8 26 14 21 32 -14 48 -26 11 -32 11 -48 -4 -11 -9 -21 -12 -22 -7 -2
5 -21 12 -41 16 -31 6 -38 4 -38 -9 0 -8 -5 -15 -11 -15 -5 0 -7 5 -4 10 7 11
6 12 -52 15 -27 2 -46 -2 -54 -11 -16 -19 -39 -18 -39 2 0 13 -8 15 -40 12
-22 -2 -40 0 -40 4 0 8 -4 8 -52 1z"/>
<path d="M0 2790 c0 -5 5 -10 10 -10 6 0 10 5 10 10 0 6 -4 10 -10 10 -5 0
-10 -4 -10 -10z"/>
<path d="M12 2768 c-13 -16 24 -62 57 -71 13 -3 20 -3 17 0 -4 4 5 19 20 34
14 15 21 29 16 33 -18 11 -42 -5 -42 -28 0 -17 -3 -15 -16 12 -17 34 -35 40
-52 20z"/>
<path d="M317 2716 c-3 -8 2 -16 14 -19 16 -4 17 -2 8 14 -12 23 -15 23 -22 5z"/>
<path d="M360 2710 c0 -5 5 -10 11 -10 5 0 7 5 4 10 -3 6 -8 10 -11 10 -2 0
-4 -4 -4 -10z"/>
<path d="M170 2560 c0 -5 7 -10 15 -10 8 0 15 5 15 10 0 6 -7 10 -15 10 -8 0
-15 -4 -15 -10z"/>
<path d="M2760 2439 c0 -12 7 -19 19 -19 30 0 32 14 5 27 -21 10 -24 9 -24 -8z"/>
<path d="M2820 2430 c0 -5 7 -10 16 -10 8 0 12 5 9 10 -3 6 -10 10 -16 10 -5
0 -9 -4 -9 -10z"/>
<path d="M2630 2240 c-17 -12 -20 -77 -4 -108 15 -31 46 -43 59 -22 3 6 13 10
22 10 12 0 13 -3 4 -13 -6 -8 -8 -17 -4 -20 15 -16 59 118 45 139 -7 12 -108
23 -122 14z m90 -46 c0 -14 -3 -14 -15 -4 -8 7 -15 14 -15 16 0 2 7 4 15 4 8
0 15 -7 15 -16z m-3 -46 c-3 -8 -6 -5 -6 6 -1 11 2 17 5 13 3 -3 4 -12 1 -19z"/>
<path d="M2691 2034 c0 -11 3 -14 6 -6 3 7 2 16 -1 19 -3 4 -6 -2 -5 -13z"/>
<path d="M2581 1964 c-25 -42 -27 -67 -6 -84 26 -21 56 14 51 59 -3 20 -5 42
-5 49 -2 22 -19 12 -40 -24z"/>
<path d="M800 1312 c0 -17 5 -34 11 -37 5 -4 14 -18 19 -31 6 -16 14 -22 25
-18 9 4 14 13 11 20 -5 14 28 29 56 25 24 -3 29 13 12 38 -12 16 -25 21 -52
21 -20 -1 -47 2 -59 5 -20 7 -23 4 -23 -23z"/>
<path d="M742 1298 c5 -15 37 -18 41 -3 1 6 -9 12 -22 13 -16 3 -22 -1 -19
-10z"/>
<path d="M522 1179 c-13 -5 -27 -7 -32 -4 -4 2 -15 -4 -24 -14 -13 -15 -26
-18 -57 -14 -40 6 -69 -8 -69 -33 0 -10 13 -14 44 -14 30 0 46 -5 50 -15 7
-20 75 -20 82 0 5 11 16 13 48 8 50 -8 246 -7 254 1 3 4 1 11 -6 18 -8 8 -15
8 -26 -1 -11 -10 -24 -6 -63 21 -26 18 -51 38 -55 43 -5 6 -15 6 -28 -3 -17
-10 -24 -10 -43 3 -24 17 -41 18 -75 4z"/>
<path d="M826 1153 c-11 -11 -6 -23 9 -23 8 0 15 4 15 9 0 13 -16 22 -24 14z"/>
<path d="M1532 1113 c3 -30 8 -39 26 -41 23 -4 32 21 12 33 -5 3 -10 15 -10
26 0 11 -7 19 -16 19 -12 0 -15 -9 -12 -37z"/>
<path d="M1487 1133 c-3 -5 5 -17 16 -28 18 -18 19 -18 14 -2 -4 10 -7 23 -7
28 0 11 -17 12 -23 2z"/>
<path d="M280 1110 c0 -6 7 -10 15 -10 8 0 15 2 15 4 0 2 -7 6 -15 10 -8 3
-15 1 -15 -4z"/>
<path d="M240 1019 c0 -11 4 -18 10 -14 5 3 7 12 3 20 -7 21 -13 19 -13 -6z"/>
<path d="M317 1006 c-4 -10 0 -12 14 -9 22 6 26 23 5 23 -8 0 -16 -6 -19 -14z"/>
<path d="M2530 986 c0 -29 19 -44 31 -25 13 20 6 43 -14 47 -12 3 -17 -3 -17
-22z"/>
</g>
</svg>
